<svg width="17" height="12" viewBox="0 0 17 14" fill="none" xmlns="http://www.w3.org/2000/svg">
<path d="M1.37838 5.62161C0.615676 5.62161 0 6.23728 0 6.99999C0 7.76269 0.615676 8.37836 1.37838 8.37836C2.14108 8.37836 2.75676 7.76269 2.75676 6.99999C2.75676 6.23728 2.14108 5.62161 1.37838 5.62161ZM1.37838 0.108093C0.615676 0.108093 0 0.723769 0 1.48647C0 2.24917 0.615676 2.86485 1.37838 2.86485C2.14108 2.86485 2.75676 2.24917 2.75676 1.48647C2.75676 0.723769 2.14108 0.108093 1.37838 0.108093ZM1.37838 11.1351C0.615676 11.1351 0 11.76 0 12.5135C0 13.267 0.624865 13.8919 1.37838 13.8919C2.13189 13.8919 2.75676 13.267 2.75676 12.5135C2.75676 11.76 2.14108 11.1351 1.37838 11.1351ZM4.13514 13.4324H17V11.5946H4.13514V13.4324ZM4.13514 7.9189H17V6.08107H4.13514V7.9189ZM4.13514 0.567553V2.40539H17V0.567553H4.13514Z" fill="#191F29"/>
</svg>
